<?xml version="1.0" standalone="no"?><!DOCTYPE svg PUBLIC "-//W3C//DTD SVG 1.1//EN" "http://www.w3.org/Graphics/SVG/1.1/DTD/svg11.dtd"><svg t="1758215117209" class="icon" viewBox="0 0 1024 1024" version="1.1" xmlns="http://www.w3.org/2000/svg" p-id="1639" xmlns:xlink="http://www.w3.org/1999/xlink" width="32" height="32"><path d="M863.465545 160.009747c46.699024 46.640724 84.215656 102.49299 109.489098 164.641754 23.524415 57.834497 36.467216 121.090978 36.467216 187.349957 0 35.855056-3.789559 70.835599-11.018871 104.533521-20.755122 97.129307-69.873634 183.7353-138.289745 250.75219a497.341695 497.341695 0 0 1-111.646232 82.408328c-70.340041 38.099641-150.882741 59.729277-236.468469 59.729277-8.337029 0-16.615758-0.204053-24.836185-0.61216-155.284459-7.637418-291.825177-86.489392-377.702409-204.548723C49.788972 722.205368 14.575226 621.199051 14.575226 512.001458c0-5.451135 0.087451-10.873119 0.262354-16.295103 3.585506-111.587931 43.958882-213.906018 109.343346-295.20663 83.690948-104.067114 208.425733-173.736695 349.601374-184.464061 12.622146-0.961965 25.360893-1.457523 38.216242-1.457523 111.966887 0 215.27609 36.991924 298.41318 99.403042 18.772891 14.079668 36.496366 29.471107 53.053823 46.028564z" fill="#FCBC1D" p-id="1640"></path><path d="M554.584438 982.355664c-58.184303-20.551069-111.413028-51.654601-157.354141-90.978561-106.661505-91.240915-174.261403-226.790518-174.261403-378.139666 0-134.208682 53.170425-256.028422 139.572365-345.49116 47.602688-49.293415 105.291433-88.792277 169.743083-115.144286a494.654023 494.654023 0 0 1 83.918322-25.818556 499.213154 499.213154 0 0 0-104.198291-10.969315c-66.579633 0-130.069318 13.088553-188.107868 36.787871-64.45165 26.352009-122.140395 65.850872-169.743084 115.144286-86.40194 89.462738-139.572365 211.282478-139.572365 345.49116 0 151.349148 67.599899 286.898751 174.261403 378.139666 45.941113 39.32396 99.169838 70.427493 157.354141 90.978561 51.858654 18.335634 107.68177 28.305089 165.807773 28.305089 35.723879 0 70.567415-3.789559 104.166225-10.94891a493.531731 493.531731 0 0 1-61.58616-17.356179zM745.461599 395.105229c-7.11854-34.604502 3.340642-67.442486 24.15698-83.224541 5.669763-4.273456 12.097438-7.305103 19.160592-8.771371 33.007057-6.774565 67.054785 23.413643 76.108916 67.448316 9.03081 44.008438-10.333835 85.189282-43.337978 91.963847-10.552464 2.192114-21.26817 0.556774-31.167663-4.092724-21.069947-9.884918-38.749696-33.400588-44.920847-63.323527z" opacity=".25" p-id="1641"></path><path d="M745.461599 395.105229c-7.11854-34.604502 3.340642-67.442486 24.15698-83.224541 21.067032 9.890748 38.796337 33.415163 44.917932 63.326442 7.11854 34.607417-3.340642 67.442486-24.15698 83.224542-21.067032-9.887833-38.746781-33.403503-44.917932-63.326443z" fill="#FCBC1D" p-id="1642"></path><path d="M812.189899 478.064501c-9.409766 0-18.912813-2.165879-28.004839-6.43642a14.575226 14.575226 0 0 1 12.388942-26.386989c7.43045 3.489309 14.83758 4.503745 22.011506 3.014157 24.652537-5.060519 39.303555-39.29481 32.024687-74.76508-7.290528-35.46444-34.251781-61.160564-58.901403-56.100045-4.734033 0.98237-9.226118 3.046222-13.315927 6.13034-16.945158 12.846604-24.454314 40.443337-18.653374 68.649315a14.575226 14.575226 0 0 1-28.552868 5.873816c-8.138806-39.577569 3.489309-77.957054 29.628519-97.773532 7.587863-5.719319 15.989023-9.555518 25.005258-11.426977 40.842699-8.37784 82.691088 26.964168 93.345578 78.784927 10.634085 51.832419-13.898936 100.808094-54.689163 109.177189a60.425972 60.425972 0 0 1-12.286916 1.259299z" fill="#333333" p-id="1643"></path><path d="M866.669179 288.467045a14.560651 14.560651 0 0 1-12.263595-6.678369 428.190992 428.190992 0 0 0-65.276607-78.67707 14.575226 14.575226 0 0 1 20.052596-21.160313 457.329784 457.329784 0 0 1 69.722051 84.037838 14.575226 14.575226 0 0 1-12.234445 22.477914zM797.078305 846.37172a14.575226 14.575226 0 0 1-9.96071-25.218057c85.629453-80.108358 134.742135-193.08968 134.742136-309.968418 0-25.45709-2.279565-50.969566-6.777481-75.823241a14.578141 14.578141 0 0 1 28.684045-5.191696 456.157936 456.157936 0 0 1 7.243888 81.014937c0 124.915518-52.476644 245.653776-143.976999 331.256994a14.540246 14.540246 0 0 1-9.954879 3.929481zM735.769074 894.356279a14.575226 14.575226 0 0 1-7.949329-26.800926 428.928499 428.928499 0 0 0 21.935716-15.234026 14.575226 14.575226 0 1 1 17.370754 23.407813 456.356159 456.356159 0 0 1-23.434048 16.277612 14.505265 14.505265 0 0 1-7.923093 2.349527z" fill="#FFFFFF" p-id="1644"></path><path d="M512.001458 1024C229.682243 1024 0 794.317757 0 512.001458S229.682243 0.002915 512.001458 0.002915c282.316299 0 511.998542 229.682243 511.998542 511.998543-0.002915 282.316299-229.685158 511.998542-511.998542 511.998542z m0-994.846633C245.755802 29.153367 29.150452 245.758717 29.150452 512.001458s216.60535 482.84809 482.851006 482.84809c266.24274 0 482.84809-216.60535 482.84809-482.84809s-216.60535-482.84809-482.84809-482.848091z" fill="#333333" p-id="1645"></path><path d="M595.118142 531.007552c0 52.150159-42.297306 94.447465-94.447465 94.447465-10.231809 0-20.084662-1.632425-29.325355-4.664072 37.778986-12.330641 65.09296-47.865043 65.09296-89.783393s-27.313974-77.452752-65.09296-89.783392c9.240693-3.031647 19.093546-4.664072 29.325355-4.664073 52.150159 0.002915 94.447465 42.297306 94.447465 94.447465z" opacity=".25" p-id="1646"></path><path d="M290.032424 755.066673c-5.392834 7.054409-12.155739 12.709597-20.259564 16.557457-35.301198 16.76151-82.058523-7.870622-104.41692-54.977753-22.358397-47.107131-11.864234-98.907484 23.436964-115.668994 5.334533-2.536089 10.93142-4.110214 16.674058-4.809825 32.182099-3.964461 68.736766 19.793157 87.742861 59.816728 17.227917 36.324378 14.954182 75.385984-3.177399 99.082387z" fill="#FCBC1D" p-id="1647"></path><path d="M290.032424 755.066673c-32.21125 3.993612-68.765917-19.793157-87.742861-59.787577-17.227917-36.321463-14.954182-75.41222 3.177399-99.111538 32.182099-3.964461 68.736766 19.793157 87.742861 59.816728 17.227917 36.324378 14.954182 75.385984-3.177399 99.082387z" opacity=".25" p-id="1648"></path><path d="M246.350472 791.379391c-35.962913 0-74.082959-26.194596-94.153046-68.480242-25.77483-54.304377-12.164484-114.896507 30.339791-135.071535 21.317726-10.121037 46.212212-8.768456 70.098092 3.807049 22.489574 11.843829 41.57146 32.473604 53.730114 58.091021a14.572311 14.572311 0 0 1-6.917403 19.417116 14.572311 14.572311 0 0 1-19.414201-6.917402c-9.473897-19.96223-24.028718-35.869631-40.982621-44.7955-15.560511-8.194192-31.190984-9.35438-44.017182-3.267766-27.984434 13.280946-35.385734 56.452766-16.504987 96.237303 18.880748 39.778707 57.000794 61.347127 84.996889 48.063266 12.820369-6.086614 21.807453-18.930304 25.299677-36.166966a14.575226 14.575226 0 0 1 28.570359 5.786365c-5.357853 26.454035-20.049681 46.594083-41.370322 56.715119-9.406851 4.465849-19.455012 6.582172-29.67516 6.582172zM500.676507 640.021498c-60.111147 0-109.013946-48.902799-109.013946-109.013946a14.575226 14.575226 0 1 1 29.150452 0c0 44.037588 35.825906 79.863494 79.863494 79.863494s79.863494-35.828821 79.863494-79.863494-35.825906-79.863494-79.863494-79.863494a79.735232 79.735232 0 0 0-41.058412 11.345356 14.575226 14.575226 0 0 1-15.006653-24.990682 108.876939 108.876939 0 0 1 56.065065-15.508041c60.111147 0 109.013946 48.902799 109.013946 109.013946s-48.902799 109.016861-109.013946 109.016861zM494.855162 292.03506a51.115318 51.115318 0 0 1-36.379765-15.067868 14.575226 14.575226 0 0 1 20.6152-20.612285c4.209325 4.21224 9.809127 6.529701 15.764565 6.529701s11.555239-2.320376 15.767479-6.529701c8.68975-8.692665 8.68975-22.839379-0.002915-31.534959-4.209325-4.21224-9.809127-6.529701-15.764564-6.529702s-11.555239 2.317461-15.764565 6.529702a14.575226 14.575226 0 1 1-20.6152-20.612285 51.109488 51.109488 0 0 1 36.379765-15.067869c13.741523 0 26.661004 5.352023 36.376849 15.067869 20.058426 20.061341 20.058426 52.701103 0.002915 72.759529a51.126978 51.126978 0 0 1-36.379764 15.067868zM676.719003 817.821767a51.115318 51.115318 0 0 1-36.379765-15.067869 14.575226 14.575226 0 0 1 20.6152-20.612285c4.209325 4.21224 9.809127 6.529701 15.764565 6.529701s11.555239-2.317461 15.764564-6.529701a22.154344 22.154344 0 0 0 6.532617-15.767479 22.163089 22.163089 0 0 0-6.529702-15.76748c-4.21224-4.21224-9.812042-6.529701-15.767479-6.529701s-11.555239 2.317461-15.764565 6.529701a14.575226 14.575226 0 1 1-20.6152-20.612285c9.718761-9.718761 22.638241-15.067869 36.379765-15.067869s26.661004 5.352023 36.379764 15.067869c9.715846 9.715846 15.067869 22.638241 15.067869 36.379765s-5.352023 26.663919-15.070784 36.379764a51.100743 51.100743 0 0 1-36.376849 15.067869z" fill="#333333" p-id="1649"></path></svg>